# xmcd
#
# Track frame offsets:
#	150
#	17079
#	28702
#	49079
#	70471
#	86764
#	100799
#	111417
#	130621
#	147876
#	164471
#	182333
#	196791
#	217664
#	236482
#	257877
#	272639
#
# Disc length: 4072 seconds
#
# Revision: 0
# Processed by: cddbd v1.5.1PL0 Copyright (c) Steve Scherf et al.
# Submitted via: dBpowerAMP V4.0
#
DISCID=e80fe611
DTITLE=Ronny Kubera and Daniela Konrad - three nights live
DYEAR=2001
DGENRE=Austropop
TTITLE0=Mrs. Robinson
TTITLE1=San Franzisco Bay Blues
TTITLE2=City Of New Orleans
TTITLE3=Land Unter
TTITLE4=Breakfast At Tiffany's
TTITLE5=I'm A Believer
TTITLE6=Hit The Road Jack
TTITLE7=Lass mi amoi no d'Sunn aufgeh' segn
TTITLE8=Both Sides Now
TTITLE9=Take It Easy
TTITLE10=Caledonia
TTITLE11=Wasted On The Way
TTITLE12=You've Got A Friend
TTITLE13=You Can Close Your Eyes
TTITLE14=Tears In Heaven
TTITLE15=Teach Your Children
TTITLE16=Hotel California
EXTD=
EXTT0=
EXTT1=
EXTT2=
EXTT3=
EXTT4=
EXTT5=
EXTT6=
EXTT7=
EXTT8=
EXTT9=
EXTT10=
EXTT11=
EXTT12=
EXTT13=
EXTT14=
EXTT15=
EXTT16=
PLAYORDER=
